<svg width="220" height="33" viewBox="0 0 220 33" fill="none" xmlns="http://www.w3.org/2000/svg">
<path d="M5.2875 32.9062V13.8562L1.25625 16.9604L0 15.3104L19.8708 0.09375L39.7417 15.3104L38.4854 16.9479L34.4542 13.8562V32.9062H5.2875ZM11.5375 22.0104C11.1069 22.0104 10.7319 21.8507 10.4125 21.5312C10.0931 21.2118 9.93333 20.8368 9.93333 20.4062C9.93333 19.9757 10.0931 19.6007 10.4125 19.2812C10.7319 18.9618 11.1069 18.8021 11.5375 18.8021C11.9681 18.8021 12.3431 18.9618 12.6625 19.2812C12.9819 19.6007 13.1417 19.9757 13.1417 20.4062C13.1417 20.8368 12.9819 21.2118 12.6625 21.5312C12.3431 21.8507 11.9681 22.0104 11.5375 22.0104ZM19.8708 22.0104C19.4403 22.0104 19.0653 21.8507 18.7458 21.5312C18.4264 21.2118 18.2667 20.8368 18.2667 20.4062C18.2667 19.9757 18.4264 19.6007 18.7458 19.2812C19.0653 18.9618 19.4403 18.8021 19.8708 18.8021C20.3014 18.8021 20.6764 18.9618 20.9958 19.2812C21.3153 19.6007 21.475 19.9757 21.475 20.4062C21.475 20.8368 21.3153 21.2118 20.9958 21.5312C20.6764 21.8507 20.3014 22.0104 19.8708 22.0104ZM28.2042 22.0104C27.7736 22.0104 27.3986 21.8507 27.0792 21.5312C26.7597 21.2118 26.6 20.8368 26.6 20.4062C26.6 19.9757 26.7597 19.6007 27.0792 19.2812C27.3986 18.9618 27.7736 18.8021 28.2042 18.8021C28.6347 18.8021 29.0097 18.9618 29.3292 19.2812C29.6486 19.6007 29.8083 19.9757 29.8083 20.4062C29.8083 20.8368 29.6486 21.2118 29.3292 21.5312C29.0097 21.8507 28.6347 22.0104 28.2042 22.0104Z" fill="#CDA274"/>
<path d="M206.571 30.1596C204.944 30.1596 203.371 29.8662 201.851 29.2796C200.357 28.6929 199.011 27.8262 197.811 26.6796C196.637 25.5062 195.704 24.0529 195.011 22.3196C194.318 20.5862 193.971 18.5596 193.971 16.2396C193.971 13.9462 194.318 11.9329 195.011 10.1996C195.704 8.46625 196.651 7.02625 197.851 5.87958C199.051 4.70625 200.398 3.82625 201.891 3.23958C203.411 2.62625 204.971 2.31958 206.571 2.31958C208.197 2.31958 209.758 2.61292 211.251 3.19958C212.771 3.75958 214.117 4.62625 215.291 5.79958C216.491 6.94625 217.438 8.39958 218.131 10.1596C218.824 11.8929 219.171 13.9196 219.171 16.2396C219.171 18.5062 218.824 20.5196 218.131 22.2796C217.438 24.0129 216.491 25.4662 215.291 26.6396C214.117 27.7863 212.771 28.6663 211.251 29.2796C209.758 29.8662 208.197 30.1596 206.571 30.1596ZM206.571 29.3196C208.037 29.3196 209.224 28.9329 210.131 28.1596C211.038 27.3596 211.691 26.0129 212.091 24.1196C212.518 22.1996 212.731 19.5729 212.731 16.2396C212.731 12.8796 212.518 10.2529 212.091 8.35958C211.691 6.43958 211.038 5.09292 210.131 4.31958C209.224 3.51958 208.037 3.11958 206.571 3.11958C205.131 3.11958 203.958 3.51958 203.051 4.31958C202.144 5.09292 201.478 6.43958 201.051 8.35958C200.651 10.2529 200.451 12.8796 200.451 16.2396C200.451 19.5729 200.651 22.1996 201.051 24.1196C201.478 26.0129 202.144 27.3596 203.051 28.1596C203.958 28.9329 205.131 29.3196 206.571 29.3196Z" fill="#292F36"/>
<path d="M169.219 29.4396V29.0396L170.539 28.6396C171.019 28.5063 171.366 28.2529 171.579 27.8796C171.793 27.4796 171.899 27.0129 171.899 26.4796V7.23958C171.606 6.59958 171.366 6.11958 171.179 5.79958C171.019 5.47958 170.833 5.21291 170.619 4.99958C170.406 4.75958 170.113 4.46625 169.739 4.11958L169.059 3.43958V3.03958H176.139L189.419 21.1596V6.07958C189.419 5.54625 189.326 5.06625 189.139 4.63958C188.979 4.21291 188.633 3.93291 188.099 3.79958L186.779 3.43958V3.03958H192.499V3.43958L191.419 3.79958C190.939 3.95958 190.646 4.23958 190.539 4.63958C190.433 5.03958 190.379 5.50625 190.379 6.03958V29.5596H188.139L172.859 8.55958V26.4796C172.859 27.0129 172.939 27.4663 173.099 27.8396C173.259 28.2129 173.593 28.4796 174.099 28.6396L175.299 29.0396V29.4396H169.219Z" fill="#292F36"/>
<path d="M155.204 30.1596C153.577 30.1596 152.004 29.8662 150.484 29.2796C148.99 28.6929 147.644 27.8262 146.444 26.6796C145.27 25.5062 144.337 24.0529 143.644 22.3196C142.95 20.5862 142.604 18.5596 142.604 16.2396C142.604 13.9462 142.95 11.9329 143.644 10.1996C144.337 8.46625 145.284 7.02625 146.484 5.87958C147.684 4.70625 149.03 3.82625 150.524 3.23958C152.044 2.62625 153.604 2.31958 155.204 2.31958C156.83 2.31958 158.39 2.61292 159.884 3.19958C161.404 3.75958 162.75 4.62625 163.924 5.79958C165.124 6.94625 166.07 8.39958 166.764 10.1596C167.457 11.8929 167.804 13.9196 167.804 16.2396C167.804 18.5062 167.457 20.5196 166.764 22.2796C166.07 24.0129 165.124 25.4662 163.924 26.6396C162.75 27.7863 161.404 28.6663 159.884 29.2796C158.39 29.8662 156.83 30.1596 155.204 30.1596ZM155.204 29.3196C156.67 29.3196 157.857 28.9329 158.764 28.1596C159.67 27.3596 160.324 26.0129 160.724 24.1196C161.15 22.1996 161.364 19.5729 161.364 16.2396C161.364 12.8796 161.15 10.2529 160.724 8.35958C160.324 6.43958 159.67 5.09292 158.764 4.31958C157.857 3.51958 156.67 3.11958 155.204 3.11958C153.764 3.11958 152.59 3.51958 151.684 4.31958C150.777 5.09292 150.11 6.43958 149.684 8.35958C149.284 10.2529 149.084 12.8796 149.084 16.2396C149.084 19.5729 149.284 22.1996 149.684 24.1196C150.11 26.0129 150.777 27.3596 151.684 28.1596C152.59 28.9329 153.764 29.3196 155.204 29.3196Z" fill="#292F36"/>
<path d="M115.691 29.4396V29.0396L116.491 28.7196C117.025 28.5329 117.371 28.2796 117.531 27.9596C117.718 27.6396 117.811 27.2262 117.811 26.7196V5.79958C117.811 5.26625 117.718 4.83958 117.531 4.51958C117.371 4.19958 117.025 3.94625 116.491 3.75958L115.691 3.43958V3.03958H125.851V3.43958L125.171 3.71958C124.665 3.90625 124.318 4.15958 124.131 4.47958C123.945 4.77291 123.851 5.18625 123.851 5.71958V15.4396H133.411V5.71958C133.411 5.18625 133.318 4.77291 133.131 4.47958C132.971 4.15958 132.625 3.90625 132.091 3.71958L131.371 3.43958V3.03958H141.571V3.43958L140.771 3.75958C140.265 3.94625 139.918 4.19958 139.731 4.51958C139.545 4.83958 139.451 5.26625 139.451 5.79958V26.7196C139.451 27.2262 139.545 27.6396 139.731 27.9596C139.918 28.2796 140.265 28.5329 140.771 28.7196L141.571 29.0396V29.4396H131.371V29.0396L132.091 28.7996C132.625 28.5863 132.971 28.3329 133.131 28.0396C133.318 27.7196 133.411 27.2929 133.411 26.7596V16.2396H123.851V26.7596C123.851 27.7463 124.291 28.4263 125.171 28.7996L125.851 29.0396V29.4396H115.691Z" fill="#292F36"/>
<path d="M94.4415 29.4396V29.0396L95.2815 28.7196C95.8415 28.5062 96.1881 28.2529 96.3215 27.9596C96.4815 27.6396 96.5615 27.2129 96.5615 26.6796V5.79958C96.5615 5.26625 96.4815 4.83958 96.3215 4.51958C96.1615 4.19958 95.8148 3.94625 95.2815 3.75958L94.4415 3.43958V3.03958H104.641V3.43958L103.921 3.75958C103.415 3.94625 103.068 4.21291 102.881 4.55958C102.695 4.87958 102.601 5.30625 102.601 5.83958V28.6396H108.761C109.748 28.6396 110.468 28.3996 110.921 27.9196C111.401 27.4396 111.855 26.7463 112.281 25.8396L113.841 22.4796H114.241L113.881 29.4396H94.4415Z" fill="#292F36"/>
<path d="M72.254 29.4396V29.0396L73.174 28.6796C73.6273 28.4929 73.934 28.2529 74.094 27.9596C74.2806 27.6396 74.374 27.2129 74.374 26.6796V5.79958C74.374 5.26625 74.294 4.85292 74.134 4.55958C74.0006 4.23958 73.6806 3.98625 73.174 3.79958L72.254 3.43958V3.03958H91.414L91.654 9.19958H91.254L89.534 5.43958C89.294 4.95958 89.0406 4.57292 88.774 4.27958C88.5073 3.98625 88.1073 3.83958 87.574 3.83958H80.374V15.3996H84.654C85.1873 15.3996 85.5873 15.2662 85.854 14.9996C86.1473 14.7062 86.4006 14.3196 86.614 13.8396L87.414 12.2396H87.814V19.4396H87.414L86.614 17.7596C86.374 17.2796 86.1206 16.9062 85.854 16.6396C85.5873 16.3462 85.1873 16.1996 84.654 16.1996H80.374V28.6396H88.454C88.9873 28.6396 89.4006 28.5062 89.694 28.2396C89.9873 27.9462 90.2273 27.5462 90.414 27.0396L92.054 23.2796H92.454L92.214 29.4396H72.254Z" fill="#292F36"/>
<path d="M60.1508 30.1596C58.6842 30.1596 57.1908 29.9729 55.6708 29.5996C54.1508 29.2529 52.8842 28.7862 51.8708 28.1996L52.0708 22.7596H52.4708L53.7108 25.3596C54.0842 26.1062 54.4842 26.7729 54.9108 27.3596C55.3375 27.9196 55.9242 28.3596 56.6708 28.6796C57.2042 28.9463 57.7108 29.1329 58.1908 29.2396C58.6975 29.3196 59.2575 29.3596 59.8708 29.3596C61.4975 29.3596 62.7775 28.9196 63.7108 28.0396C64.6708 27.1596 65.1508 26.0263 65.1508 24.6396C65.1508 23.3329 64.8308 22.3196 64.1908 21.5996C63.5508 20.8529 62.5242 20.1329 61.1108 19.4396L59.4708 18.7196C57.1775 17.7062 55.3775 16.5462 54.0708 15.2396C52.7908 13.9062 52.1508 12.1462 52.1508 9.95958C52.1508 8.38625 52.5508 7.02625 53.3508 5.87958C54.1775 4.73292 55.3108 3.85292 56.7508 3.23958C58.2175 2.62625 59.9242 2.31958 61.8708 2.31958C63.2842 2.31958 64.6175 2.50625 65.8708 2.87958C67.1508 3.25291 68.2575 3.75958 69.1908 4.39958L68.9508 9.19958H68.5508L66.9108 6.19958C66.4575 5.26625 66.0042 4.61291 65.5508 4.23958C65.0975 3.83958 64.5775 3.55958 63.9908 3.39958C63.6442 3.29292 63.3242 3.22625 63.0308 3.19958C62.7375 3.14625 62.3642 3.11958 61.9108 3.11958C60.5508 3.11958 59.4042 3.51958 58.4708 4.31958C57.5375 5.09292 57.0708 6.14625 57.0708 7.47958C57.0708 8.83958 57.4308 9.93292 58.1508 10.7596C58.8708 11.5596 59.9242 12.2796 61.3108 12.9196L63.1508 13.7196C65.7108 14.8396 67.5508 16.0396 68.6708 17.3196C69.7908 18.5729 70.3508 20.1996 70.3508 22.1996C70.3508 24.5462 69.4575 26.4662 67.6708 27.9596C65.9108 29.4263 63.4042 30.1596 60.1508 30.1596Z" fill="#292F36"/>
</svg>
